<svg width="40" height="41" viewBox="0 0 40 41" fill="none" xmlns="http://www.w3.org/2000/svg">
<g clip-path="url(#clip0_2060_318)">
<path d="M1.85536 0H0V3.74468H1.85536V0Z" fill="currentColor"/>
<path d="M13.7765 37.2391H11.918V40.9481H13.7765V37.2391Z" fill="currentColor"/>
<path d="M37.6164 32.3782V35.3473H35.7578V34.8119H35.761V32.9168H35.7578V32.3782H37.6164Z" fill="currentColor"/>
<path d="M35.2326 5.63973H33.374V8.60887H35.2326V5.63973Z" fill="currentColor"/>
<path d="M23.3114 0H21.4561V1.31421H23.3114V0Z" fill="currentColor"/>
<path d="M25.6952 0H23.8398V3.74792H25.6952V0Z" fill="currentColor"/>
<path d="M28.0817 0H26.2231V1.31421H28.0817V0Z" fill="currentColor"/>
<path d="M32.8493 0H30.9907V1.31421H32.8493V0Z" fill="currentColor"/>
<path d="M35.2326 0H33.374V3.74792H35.2326V0Z" fill="currentColor"/>
<path d="M37.6164 0H35.7578V1.31421H37.6164V0Z" fill="currentColor"/>
<path d="M37.6164 3.20926V6.17515H35.7578V5.63973H35.761V3.74792H35.7578V3.20926H37.6164Z" fill="currentColor"/>
<path d="M32.8493 3.20926H30.9907V6.17839H32.8493V3.20926Z" fill="currentColor"/>
<path d="M30.4655 0H28.6069V3.74792H30.4655V0Z" fill="currentColor"/>
<path d="M28.0817 3.20926H26.2231V6.17839H28.0817V3.20926Z" fill="currentColor"/>
<path d="M23.3114 3.20926H21.4561V6.17515H23.3114V3.20926Z" fill="currentColor"/>
<path d="M25.6952 5.63973H23.8398V8.60887H25.6952V5.63973Z" fill="currentColor"/>
<path d="M23.3114 8.07021H21.4561V11.0393H23.3114V8.07021Z" fill="currentColor"/>
<path d="M28.0817 8.07021H26.2231V11.0393H28.0817V8.07021Z" fill="currentColor"/>
<path d="M30.4655 5.63973H28.6069V8.60887H30.4655V5.63973Z" fill="currentColor"/>
<path d="M32.8493 8.07021H30.9907V11.0393H32.8493V8.07021Z" fill="currentColor"/>
<path d="M30.4655 10.5039H28.6069V13.4666H30.4655V10.5039Z" fill="currentColor"/>
<path d="M28.0785 13.4698V15.3616H28.0817V15.9003H26.2231V12.9311H28.0817V13.4698H28.0785Z" fill="currentColor"/>
<path d="M25.6952 10.5039H23.8398V13.4698H25.6952V10.5039Z" fill="currentColor"/>
<path d="M23.3114 12.9344H21.4561V15.9003H23.3114V12.9344Z" fill="currentColor"/>
<path d="M23.3114 17.7953H21.4561V20.7645H23.3114V17.7953Z" fill="currentColor"/>
<path d="M25.6952 25.0867H23.8398V28.0559H25.6952V25.0867Z" fill="currentColor"/>
<path d="M25.6952 15.3649H23.8398V18.3308H25.6952V15.3649Z" fill="currentColor"/>
<path d="M23.3114 22.6563H21.4561V25.6254H23.3114V22.6563Z" fill="currentColor"/>
<path d="M25.6952 20.2258H23.8398V23.1949H25.6952V20.2258Z" fill="currentColor"/>
<path d="M28.0785 23.1917V25.0867H28.0817V25.6254H26.2231V22.6563H28.0817V23.1917H28.0785Z" fill="currentColor"/>
<path d="M23.3114 27.5172H21.4561V30.4831H23.3114V27.5172Z" fill="currentColor"/>
<path d="M25.6952 29.9477H23.8398V32.9168H25.6952V29.9477Z" fill="currentColor"/>
<path d="M28.0817 32.3814H26.2231V35.3473H28.0817V32.3814Z" fill="currentColor"/>
<path d="M28.0817 27.5172H26.2231V30.4863H28.0817V27.5172Z" fill="currentColor"/>
<path d="M30.4655 29.9477H28.6069V32.9168H30.4655V29.9477Z" fill="currentColor"/>
<path d="M30.4655 25.0867H28.6069V28.0559H30.4655V25.0867Z" fill="currentColor"/>
<path d="M32.8493 27.5172H30.9907V30.4863H32.8493V27.5172Z" fill="currentColor"/>
<path d="M39.9999 34.8086H38.1445V37.7778H39.9999V34.8086Z" fill="currentColor"/>
<path d="M35.2326 29.9477H33.374V32.9168H35.2326V29.9477Z" fill="currentColor"/>
<path d="M35.2326 34.8119H33.374V37.7778H35.2326V34.8119Z" fill="currentColor"/>
<path d="M32.8493 32.3814H30.9907V35.3473H32.8493V32.3814Z" fill="currentColor"/>
<path d="M30.4655 34.8119H28.6069V37.7778H30.4655V34.8119Z" fill="currentColor"/>
<path d="M30.4655 39.6728H28.6069V40.9481H30.4655V39.6728Z" fill="currentColor"/>
<path d="M32.8493 37.2423H30.9907V40.9481H32.8493V37.2423Z" fill="currentColor"/>
<path d="M35.2326 39.6728H33.374V40.9481H35.2326V39.6728Z" fill="currentColor"/>
<path d="M39.9999 39.6728H38.1445V41H39.9999V39.6728Z" fill="currentColor"/>
<path d="M37.6164 37.2423V40.9481H35.7578V39.6728H35.761V37.7778H35.7578V37.2423H37.6164Z" fill="currentColor"/>
<path d="M20.9279 10.5007H19.0693V13.4698H20.9279V10.5007Z" fill="currentColor"/>
<path d="M20.9279 15.3649V18.3308H19.0693V17.7953H19.0725V15.9003H19.0693V15.3649H20.9279Z" fill="currentColor"/>
<path d="M20.9279 20.2258V23.1949H19.0693V22.6563H19.0725V20.7645H19.0693V20.2258H20.9279Z" fill="currentColor"/>
<path d="M20.9279 25.0867H19.0693V28.0526H20.9279V25.0867Z" fill="currentColor"/>
<path d="M18.5441 22.6563H16.6855V25.6222H18.5441V22.6563Z" fill="currentColor"/>
<path d="M18.5441 17.7953V20.7645H16.6855V20.2258H16.6887V18.3308H16.6855V17.7953H18.5441Z" fill="currentColor"/>
<path d="M16.1603 20.2258V23.1917H14.3018V22.6563H14.3049V20.7645H14.3018V20.2258H16.1603Z" fill="currentColor"/>
<path d="M16.1603 15.3616V18.3307H14.3018V17.7953H14.3049V15.9003H14.3018V15.3616H16.1603Z" fill="currentColor"/>
<path d="M18.5441 12.9311H16.6855V15.9003H18.5441V12.9311Z" fill="currentColor"/>
<path d="M1.85536 5.63973H0V8.60562H1.85536V5.63973Z" fill="currentColor"/>
<path d="M4.23915 3.20926H2.38379V6.17839H4.23915V3.20926Z" fill="currentColor"/>
<path d="M4.23915 0H2.38379V1.31421H4.23915V0Z" fill="currentColor"/>
<path d="M6.62245 0H4.76709V3.74792H6.62245V0Z" fill="currentColor"/>
<path d="M13.7765 0H11.918V1.31421H13.7765V0Z" fill="currentColor"/>
<path d="M9.00624 0H7.15088V1.31421H9.00624V0Z" fill="currentColor"/>
<path d="M9.00624 3.20926H7.15088V6.17839H9.00624V3.20926Z" fill="currentColor"/>
<path d="M11.3932 0H9.53467V3.74792H11.3932V0Z" fill="currentColor"/>
<path d="M11.3932 5.63973H9.53467V8.60887H11.3932V5.63973Z" fill="currentColor"/>
<path d="M13.7765 3.20926H11.918V6.17515H13.7765V3.20926Z" fill="currentColor"/>
<path d="M13.7765 8.07021H11.918V11.0393H13.7765V8.07021Z" fill="currentColor"/>
<path d="M13.7765 12.9311H11.918V15.9003H13.7765V12.9311Z" fill="currentColor"/>
<path d="M11.3932 10.5039H9.53467V13.4698H11.3932V10.5039Z" fill="currentColor"/>
<path d="M9.00624 12.9344H7.15088V15.9003H9.00624V12.9344Z" fill="currentColor"/>
<path d="M9.00624 8.07021H7.15088V11.0393H9.00624V8.07021Z" fill="currentColor"/>
<path d="M6.62245 5.63973H4.76709V8.60887H6.62245V5.63973Z" fill="currentColor"/>
<path d="M4.23915 8.07021H2.38379V11.0393H4.23915V8.07021Z" fill="currentColor"/>
<path d="M1.85536 10.5007H0V13.4698H1.85536V10.5007Z" fill="currentColor"/>
<path d="M1.85536 15.3616H0V18.3307H1.85536V15.3616Z" fill="currentColor"/>
<path d="M4.23915 12.9344H2.38379V15.9003H4.23915V12.9344Z" fill="currentColor"/>
<path d="M6.62245 10.5039H4.76709V13.4698H6.62245V10.5039Z" fill="currentColor"/>
<path d="M13.7765 17.7953H11.918V20.7645H13.7765V17.7953Z" fill="currentColor"/>
<path d="M11.3932 15.3649H9.53467V18.3308H11.3932V15.3649Z" fill="currentColor"/>
<path d="M9.00624 17.7953H7.15088V20.7645H9.00624V17.7953Z" fill="currentColor"/>
<path d="M6.62245 15.3649H4.76709V18.3308H6.62245V15.3649Z" fill="currentColor"/>
<path d="M4.23915 17.7953H2.38379V20.7645H4.23915V17.7953Z" fill="currentColor"/>
<path d="M1.85536 20.2258H0V23.1917H1.85536V20.2258Z" fill="currentColor"/>
<path d="M1.85536 25.0867H0V28.0526H1.85536V25.0867Z" fill="currentColor"/>
<path d="M4.23915 22.6563H2.38379V25.6254H4.23915V22.6563Z" fill="currentColor"/>
<path d="M6.62245 20.2258H4.76709V23.1949H6.62245V20.2258Z" fill="currentColor"/>
<path d="M11.3932 20.2258H9.53467V23.1949H11.3932V20.2258Z" fill="currentColor"/>
<path d="M9.00624 22.6563H7.15088V25.6254H9.00624V22.6563Z" fill="currentColor"/>
<path d="M6.62245 25.0867H4.76709V28.0559H6.62245V25.0867Z" fill="currentColor"/>
<path d="M11.3932 25.0867H9.53467V28.0559H11.3932V25.0867Z" fill="currentColor"/>
<path d="M13.7765 22.6563H11.918V25.6222H13.7765V22.6563Z" fill="currentColor"/>
<path d="M13.7765 27.5172H11.918V30.4831H13.7765V27.5172Z" fill="currentColor"/>
<path d="M1.85536 29.9477H0V32.9168H1.85536V29.9477Z" fill="currentColor"/>
<path d="M4.23915 27.5172H2.38379V30.4863H4.23915V27.5172Z" fill="currentColor"/>
<path d="M9.00624 27.5172H7.15088V30.4863H9.00624V27.5172Z" fill="currentColor"/>
<path d="M6.62245 29.9477H4.76709V32.9168H6.62245V29.9477Z" fill="currentColor"/>
<path d="M11.3932 29.9477H9.53467V32.9168H11.3932V29.9477Z" fill="currentColor"/>
<path d="M13.7765 32.3782H11.918V35.3473H13.7765V32.3782Z" fill="currentColor"/>
<path d="M11.3932 34.8119H9.53467V37.7778H11.3932V34.8119Z" fill="currentColor"/>
<path d="M9.00624 32.3814H7.15088V35.3473H9.00624V32.3814Z" fill="currentColor"/>
<path d="M6.62245 34.8119H4.76709V37.7778H6.62245V34.8119Z" fill="currentColor"/>
<path d="M4.23915 32.3814H2.38379V35.3473H4.23915V32.3814Z" fill="currentColor"/>
<path d="M1.85536 34.8086H0V37.7778H1.85536V34.8086Z" fill="currentColor"/>
<path d="M1.85536 39.6728H0V40.9481H1.85536V39.6728Z" fill="currentColor"/>
<path d="M4.23915 37.2423H2.38379V40.9481H4.23915V37.2423Z" fill="currentColor"/>
<path d="M6.62245 39.6728H4.76709V40.9481H6.62245V39.6728Z" fill="currentColor"/>
<path d="M9.00624 37.2423H7.15088V40.9481H9.00624V37.2423Z" fill="currentColor"/>
<path d="M11.3932 39.6728H9.53467V40.9481H11.3932V39.6728Z" fill="currentColor"/>
</g>
<defs>
<clipPath id="clip0_2060_318">
<rect width="40" height="41" fill="white"/>
</clipPath>
</defs>
</svg>
