<svg xmlns="http://www.w3.org/2000/svg" version="1.1" xmlns:xlink="http://www.w3.org/1999/xlink" width="449.38" height="451.12"><svg xmlns="http://www.w3.org/2000/svg" version="1.1" xmlns:xlink="http://www.w3.org/1999/xlink" width="449.38" height="451.12"><svg id="Calque_1" xmlns="http://www.w3.org/2000/svg" version="1.1" viewBox="0 0 449.38 451.12">
  <!-- Generator: Adobe Illustrator 30.0.0, SVG Export Plug-In . SVG Version: 2.1.1 Build 123)  -->
  <defs>
    <style>
      .st0 {
        fill: #1d1d1b;
      }
    </style>
  </defs>
  <rect class="st0" width="20.83" height="41.22"></rect>
  <rect class="st0" x="133.78" y="409.95" width="20.86" height="40.83"></rect>
  <polygon class="st0" points="422.24 356.44 422.24 389.12 401.38 389.12 401.38 383.23 401.41 383.23 401.41 362.37 401.38 362.37 401.38 356.44 422.24 356.44"></polygon>
  <rect class="st0" x="374.62" y="62.09" width="20.86" height="32.69"></rect>
  <rect class="st0" x="240.84" width="20.83" height="14.47"></rect>
  <rect class="st0" x="267.6" width="20.83" height="41.26"></rect>
  <rect class="st0" x="294.35" width="20.86" height="14.47"></rect>
  <rect class="st0" x="347.86" width="20.86" height="14.47"></rect>
  <rect class="st0" x="374.62" width="20.86" height="41.26"></rect>
  <rect class="st0" x="401.38" width="20.86" height="14.47"></rect>
  <polygon class="st0" points="422.24 35.33 422.24 67.98 401.38 67.98 401.38 62.09 401.41 62.09 401.41 41.26 401.38 41.26 401.38 35.33 422.24 35.33"></polygon>
  <rect class="st0" x="347.86" y="35.33" width="20.86" height="32.69"></rect>
  <rect class="st0" x="321.11" width="20.86" height="41.26"></rect>
  <rect class="st0" x="294.35" y="35.33" width="20.86" height="32.69"></rect>
  <rect class="st0" x="240.84" y="35.33" width="20.83" height="32.65"></rect>
  <rect class="st0" x="267.6" y="62.09" width="20.83" height="32.69"></rect>
  <rect class="st0" x="240.84" y="88.84" width="20.83" height="32.69"></rect>
  <rect class="st0" x="294.35" y="88.84" width="20.86" height="32.69"></rect>
  <rect class="st0" x="321.11" y="62.09" width="20.86" height="32.69"></rect>
  <rect class="st0" x="347.86" y="88.84" width="20.86" height="32.69"></rect>
  <rect class="st0" x="321.11" y="115.63" width="20.86" height="32.61"></rect>
  <polygon class="st0" points="315.18 148.28 315.18 169.11 315.21 169.11 315.21 175.04 294.35 175.04 294.35 142.35 315.21 142.35 315.21 148.28 315.18 148.28"></polygon>
  <rect class="st0" x="267.6" y="115.63" width="20.83" height="32.65"></rect>
  <rect class="st0" x="240.84" y="142.39" width="20.83" height="32.65"></rect>
  <rect class="st0" x="240.84" y="195.9" width="20.83" height="32.69"></rect>
  <rect class="st0" x="267.6" y="276.17" width="20.83" height="32.69"></rect>
  <rect class="st0" x="267.6" y="169.15" width="20.83" height="32.65"></rect>
  <rect class="st0" x="240.84" y="249.41" width="20.83" height="32.69"></rect>
  <rect class="st0" x="267.6" y="222.66" width="20.83" height="32.69"></rect>
  <polygon class="st0" points="315.18 255.31 315.18 276.17 315.21 276.17 315.21 282.1 294.35 282.1 294.35 249.41 315.21 249.41 315.21 255.31 315.18 255.31"></polygon>
  <rect class="st0" x="240.84" y="302.92" width="20.83" height="32.65"></rect>
  <rect class="st0" x="267.6" y="329.68" width="20.83" height="32.69"></rect>
  <rect class="st0" x="294.35" y="356.47" width="20.86" height="32.65"></rect>
  <rect class="st0" x="294.35" y="302.92" width="20.86" height="32.69"></rect>
  <rect class="st0" x="321.11" y="329.68" width="20.86" height="32.69"></rect>
  <rect class="st0" x="321.11" y="276.17" width="20.86" height="32.69"></rect>
  <rect class="st0" x="347.86" y="302.92" width="20.86" height="32.69"></rect>
  <rect class="st0" x="428.17" y="383.19" width="20.83" height="32.69"></rect>
  <rect class="st0" x="374.62" y="329.68" width="20.86" height="32.69"></rect>
  <rect class="st0" x="374.62" y="383.23" width="20.86" height="32.65"></rect>
  <rect class="st0" x="347.86" y="356.47" width="20.86" height="32.65"></rect>
  <rect class="st0" x="321.11" y="383.23" width="20.86" height="32.65"></rect>
  <rect class="st0" x="321.11" y="436.74" width="20.86" height="14.04"></rect>
  <rect class="st0" x="347.86" y="409.99" width="20.86" height="40.79"></rect>
  <rect class="st0" x="374.62" y="436.74" width="20.86" height="14.04"></rect>
  <rect class="st0" x="428.17" y="436.74" width="20.83" height="14.61"></rect>
  <polygon class="st0" points="422.24 409.99 422.24 450.78 401.38 450.78 401.38 436.74 401.41 436.74 401.41 415.88 401.38 415.88 401.38 409.99 422.24 409.99"></polygon>
  <rect class="st0" x="214.05" y="115.6" width="20.86" height="32.69"></rect>
  <polygon class="st0" points="234.91 169.15 234.91 201.79 214.05 201.79 214.05 195.9 214.08 195.9 214.08 175.04 214.05 175.04 214.05 169.15 234.91 169.15"></polygon>
  <polygon class="st0" points="234.91 222.66 234.91 255.34 214.05 255.34 214.05 249.41 214.08 249.41 214.08 228.59 214.05 228.59 214.05 222.66 234.91 222.66"></polygon>
  <rect class="st0" x="214.05" y="276.17" width="20.86" height="32.65"></rect>
  <rect class="st0" x="187.29" y="249.41" width="20.86" height="32.65"></rect>
  <polygon class="st0" points="208.15 195.9 208.15 228.59 187.29 228.59 187.29 222.66 187.33 222.66 187.33 201.79 187.29 201.79 187.29 195.9 208.15 195.9"></polygon>
  <polygon class="st0" points="181.4 222.66 181.4 255.31 160.54 255.31 160.54 249.41 160.57 249.41 160.57 228.59 160.54 228.59 160.54 222.66 181.4 222.66"></polygon>
  <polygon class="st0" points="181.4 169.11 181.4 201.79 160.54 201.79 160.54 195.9 160.57 195.9 160.57 175.04 160.54 175.04 160.54 169.11 181.4 169.11"></polygon>
  <rect class="st0" x="187.29" y="142.35" width="20.86" height="32.69"></rect>
  <rect class="st0" y="62.09" width="20.83" height="32.65"></rect>
  <rect class="st0" x="26.76" y="35.33" width="20.83" height="32.69"></rect>
  <rect class="st0" x="26.76" width="20.83" height="14.47"></rect>
  <rect class="st0" x="53.51" width="20.83" height="41.26"></rect>
  <rect class="st0" x="133.78" width="20.86" height="14.47"></rect>
  <rect class="st0" x="80.27" width="20.83" height="14.47"></rect>
  <rect class="st0" x="80.27" y="35.33" width="20.83" height="32.69"></rect>
  <rect class="st0" x="107.02" width="20.86" height="41.26"></rect>
  <rect class="st0" x="107.02" y="62.09" width="20.86" height="32.69"></rect>
  <rect class="st0" x="133.78" y="35.33" width="20.86" height="32.65"></rect>
  <rect class="st0" x="133.78" y="88.84" width="20.86" height="32.69"></rect>
  <rect class="st0" x="133.78" y="142.35" width="20.86" height="32.69"></rect>
  <rect class="st0" x="107.02" y="115.63" width="20.86" height="32.65"></rect>
  <rect class="st0" x="80.27" y="142.39" width="20.83" height="32.65"></rect>
  <rect class="st0" x="80.27" y="88.84" width="20.83" height="32.69"></rect>
  <rect class="st0" x="53.51" y="62.09" width="20.83" height="32.69"></rect>
  <rect class="st0" x="26.76" y="88.84" width="20.83" height="32.69"></rect>
  <rect class="st0" y="115.6" width="20.83" height="32.69"></rect>
  <rect class="st0" y="169.11" width="20.83" height="32.69"></rect>
  <rect class="st0" x="26.76" y="142.39" width="20.83" height="32.65"></rect>
  <rect class="st0" x="53.51" y="115.63" width="20.83" height="32.65"></rect>
  <rect class="st0" x="133.78" y="195.9" width="20.86" height="32.69"></rect>
  <rect class="st0" x="107.02" y="169.15" width="20.86" height="32.65"></rect>
  <rect class="st0" x="80.27" y="195.9" width="20.83" height="32.69"></rect>
  <rect class="st0" x="53.51" y="169.15" width="20.83" height="32.65"></rect>
  <rect class="st0" x="26.76" y="195.9" width="20.83" height="32.69"></rect>
  <rect class="st0" y="222.66" width="20.83" height="32.65"></rect>
  <rect class="st0" y="276.17" width="20.83" height="32.65"></rect>
  <rect class="st0" x="26.76" y="249.41" width="20.83" height="32.69"></rect>
  <rect class="st0" x="53.51" y="222.66" width="20.83" height="32.69"></rect>
  <rect class="st0" x="107.02" y="222.66" width="20.86" height="32.69"></rect>
  <rect class="st0" x="80.27" y="249.41" width="20.83" height="32.69"></rect>
  <rect class="st0" x="53.51" y="276.17" width="20.83" height="32.69"></rect>
  <rect class="st0" x="107.02" y="276.17" width="20.86" height="32.69"></rect>
  <rect class="st0" x="133.78" y="249.41" width="20.86" height="32.65"></rect>
  <rect class="st0" x="133.78" y="302.92" width="20.86" height="32.65"></rect>
  <rect class="st0" y="329.68" width="20.83" height="32.69"></rect>
  <rect class="st0" x="26.76" y="302.92" width="20.83" height="32.69"></rect>
  <rect class="st0" x="80.27" y="302.92" width="20.83" height="32.69"></rect>
  <rect class="st0" x="53.51" y="329.68" width="20.83" height="32.69"></rect>
  <rect class="st0" x="107.02" y="329.68" width="20.86" height="32.69"></rect>
  <rect class="st0" x="133.78" y="356.44" width="20.86" height="32.69"></rect>
  <rect class="st0" x="107.02" y="383.23" width="20.86" height="32.65"></rect>
  <rect class="st0" x="80.27" y="356.47" width="20.83" height="32.65"></rect>
  <rect class="st0" x="53.51" y="383.23" width="20.83" height="32.65"></rect>
  <rect class="st0" x="26.76" y="356.47" width="20.83" height="32.65"></rect>
  <rect class="st0" y="383.19" width="20.83" height="32.69"></rect>
  <rect class="st0" y="436.74" width="20.83" height="14.04"></rect>
  <rect class="st0" x="26.76" y="409.99" width="20.83" height="40.79"></rect>
  <rect class="st0" x="53.51" y="436.74" width="20.83" height="14.04"></rect>
  <rect class="st0" x="80.27" y="409.99" width="20.83" height="40.79"></rect>
  <rect class="st0" x="107.02" y="436.74" width="20.86" height="14.04"></rect>
</svg></svg><style>@media (prefers-color-scheme: light) { :root { filter: none; } }
@media (prefers-color-scheme: dark) { :root { filter: invert(100%); } }
</style></svg>